<svg width="130" height="130" viewBox="0 0 130 130" fill="none" xmlns="http://www.w3.org/2000/svg">
<path d="M82.81 24.83V12.6099H93.6C94.822 12.6099 95.81 11.6219 95.81 10.3999C95.81 9.17794 94.822 8.18994 93.6 8.18994H80.6H65H52C50.778 8.18994 49.79 9.17794 49.79 10.3999C49.79 11.6219 50.778 12.6099 52 12.6099H62.79V23.79H41.6C40.378 23.79 39.39 24.778 39.39 26C39.39 27.222 40.378 28.21 41.6 28.21H52.468C46.592 30.888 41.34 34.71 36.9719 39.39H26C24.778 39.39 23.79 40.378 23.79 41.6C23.79 42.822 24.778 43.81 26 43.81H33.306C30.7839 47.216 28.704 50.986 27.144 54.99H18.1999C16.9779 54.99 15.9899 55.978 15.9899 57.2C15.9899 58.422 16.9779 59.41 18.1999 59.41H25.6619C24.6479 62.998 24.0239 66.742 23.8419 70.59H10.3999C9.17794 70.59 8.18994 71.578 8.18994 72.8C8.18994 74.022 9.17794 75.01 10.3999 75.01H23.8419C24.0239 78.858 24.6219 82.602 25.6619 86.19H18.1999C16.9779 86.19 15.9899 87.178 15.9899 88.4C15.9899 89.622 16.9779 90.61 18.1999 90.61H27.144C28.704 94.614 30.8099 98.384 33.306 101.79H15.5999C14.3779 101.79 13.3899 102.778 13.3899 104C13.3899 105.222 14.3779 106.21 15.5999 106.21H36.9719C45.916 115.804 58.682 121.81 72.8 121.81C99.814 121.81 121.81 99.814 121.81 72.8C121.81 49.218 105.04 29.458 82.81 24.83ZM67.21 12.6099H78.39V23.79H72.8H67.21V12.6099ZM72.8 117.39C48.204 117.39 28.21 97.396 28.21 72.8C28.21 48.204 48.204 28.21 72.8 28.21C97.396 28.21 117.39 48.204 117.39 72.8C117.39 97.396 97.396 117.39 72.8 117.39Z" fill="#424242"/>
<path d="M72.7998 43.8104C74.0218 43.8104 75.0098 42.8224 75.0098 41.6004V36.4004C75.0098 35.1784 74.0218 34.1904 72.7998 34.1904C71.5778 34.1904 70.5898 35.1784 70.5898 36.4004V41.6004C70.5898 42.8224 71.5778 43.8104 72.7998 43.8104Z" fill="#424242"/>
<path d="M72.7998 101.79C71.5778 101.79 70.5898 102.778 70.5898 104V109.2C70.5898 110.422 71.5778 111.41 72.7998 111.41C74.0218 111.41 75.0098 110.422 75.0098 109.2V104C75.0098 102.778 74.0218 101.79 72.7998 101.79Z" fill="#424242"/>
<path d="M109.2 70.5908H104C102.778 70.5908 101.79 71.5788 101.79 72.8008C101.79 74.0228 102.778 75.0108 104 75.0108H109.2C110.422 75.0108 111.41 74.0228 111.41 72.8008C111.41 71.5788 110.422 70.5908 109.2 70.5908Z" fill="#424242"/>
<path d="M41.5999 70.5908H36.3999C35.1779 70.5908 34.1899 71.5788 34.1899 72.8008C34.1899 74.0228 35.1779 75.0108 36.3999 75.0108H41.5999C42.8219 75.0108 43.8099 74.0228 43.8099 72.8008C43.8099 71.5788 42.8219 70.5908 41.5999 70.5908Z" fill="#424242"/>
<path d="M97.2401 45.2407L80.0021 62.4787C77.9481 61.0487 75.4781 60.2167 72.8001 60.2167C65.8581 60.2167 60.1901 65.8847 60.1901 72.8267C60.1901 75.5047 61.0221 78.0007 62.4521 80.0287L55.6401 86.8407C54.7821 87.6987 54.7821 89.1027 55.6401 89.9607C56.0821 90.4027 56.6281 90.6107 57.2001 90.6107C57.7721 90.6107 58.3441 90.4027 58.7601 89.9607L65.5981 83.1227C67.6521 84.5527 70.1221 85.3847 72.8001 85.3847C79.7421 85.3847 85.4101 79.7167 85.4101 72.7747C85.4101 70.0967 84.5781 67.6007 83.1481 65.5727L100.36 48.3607C101.218 47.5027 101.218 46.0987 100.36 45.2407C99.5021 44.3827 98.0981 44.3827 97.2401 45.2407ZM72.8001 80.9907C70.6161 80.9907 68.6401 80.1327 67.1841 78.7547C67.1321 78.7027 67.0801 78.6247 67.0281 78.5727C66.9761 78.5207 66.8981 78.4687 66.8461 78.4167C65.4681 76.9607 64.6101 74.9847 64.6101 72.8007C64.6101 68.2767 68.2761 64.6107 72.8001 64.6107C74.8801 64.6107 76.7781 65.3907 78.2341 66.6647C78.3121 66.7947 78.4161 66.9247 78.5461 67.0547C78.6761 67.1847 78.8061 67.2887 78.9361 67.3667C80.2101 68.8227 80.9901 70.7207 80.9901 72.8007C80.9901 77.3247 77.3241 80.9907 72.8001 80.9907Z" fill="#424242"/>
</svg>
