<svg width="130" height="130" viewBox="0 0 130 130" fill="none" xmlns="http://www.w3.org/2000/svg">
<path d="M112.632 31.7458L98.6962 26.1818C90.8182 23.0358 83.1482 19.1358 75.9462 14.6378L66.1702 8.52779C65.4422 8.08579 64.5322 8.08579 63.8302 8.52779L54.0542 14.6378C46.8522 19.1358 39.2082 23.0098 31.3042 26.1818L17.3682 31.7458C16.5362 32.0838 15.9902 32.8898 15.9902 33.7998V63.2058C15.9902 78.0518 23.1922 92.1177 35.2302 100.828L63.7002 121.394C64.0902 121.68 64.5322 121.81 65.0002 121.81C65.4682 121.81 65.9102 121.68 66.3002 121.394L94.7702 100.828C106.808 92.1177 114.01 78.0518 114.01 63.2058V33.7998C114.01 32.8898 113.464 32.0838 112.632 31.7458ZM109.59 63.2058C109.59 76.6478 103.09 89.3877 92.1962 97.2397L65.0002 116.87L37.8042 97.2397C26.9102 89.3617 20.4102 76.6478 20.4102 63.2058V35.3078L32.9422 30.2898C41.0802 27.0398 48.9582 23.0358 56.3942 18.3818L65.0002 12.9998L73.6062 18.3818C81.0422 23.0098 88.9202 27.0138 97.0582 30.2898L109.59 35.3078V63.2058Z" fill="#424242"/>
<path d="M88.3996 62.7892C87.1776 62.7892 86.1896 63.7772 86.1896 64.9992C86.1896 76.6731 76.6736 86.1891 64.9996 86.1891C53.3256 86.1891 43.8096 76.6731 43.8096 64.9992C43.8096 53.3252 53.3256 43.8092 64.9996 43.8092C66.2216 43.8092 67.2096 42.8212 67.2096 41.5992C67.2096 40.3772 66.2216 39.3892 64.9996 39.3892C50.8816 39.3892 39.3896 50.8812 39.3896 64.9992C39.3896 79.1171 50.8816 90.6091 64.9996 90.6091C79.1176 90.6091 90.6096 79.1171 90.6096 64.9992C90.6096 63.7772 89.6216 62.7892 88.3996 62.7892Z" fill="#424242"/>
<path d="M86.8401 45.2407L65.0001 67.0807L58.7601 60.8407C57.9021 59.9827 56.4981 59.9827 55.6401 60.8407C54.7821 61.6987 54.7821 63.1027 55.6401 63.9607L63.4401 71.7607C63.8821 72.2027 64.4281 72.4107 65.0001 72.4107C65.5721 72.4107 66.1441 72.2027 66.5601 71.7607L89.9601 48.3607C90.8181 47.5027 90.8181 46.0987 89.9601 45.2407C89.1021 44.3827 87.6981 44.3827 86.8401 45.2407Z" fill="#424242"/>
</svg>
