<svg width="80" height="80" viewBox="0 0 80 80" fill="none" xmlns="http://www.w3.org/2000/svg">
<path d="M40 80C62.0914 80 80 62.0914 80 40C80 17.9086 62.0914 0 40 0C17.9086 0 0 17.9086 0 40C0 62.0914 17.9086 80 40 80Z" fill="#FF1AB1"/>
<path d="M48.9905 16.0377H31.0095C22.7429 16.0377 16.0381 22.7425 16.0381 31.0091V48.9901C16.0381 57.2568 22.7429 63.9615 31.0095 63.9615H48.9905C57.2571 63.9615 63.9619 57.2568 63.9619 48.9901V31.0091C63.9619 22.7425 57.2571 16.0377 48.9905 16.0377ZM59.4667 48.9901C59.4667 54.7806 54.7619 59.4663 48.9905 59.4663H31.0095C25.2191 59.4663 20.5333 54.7615 20.5333 48.9901V31.0091C20.5333 25.2187 25.2381 20.533 31.0095 20.533H48.9905C54.7809 20.533 59.4667 25.2377 59.4667 31.0091V48.9901Z" fill="white"/>
<path d="M40 28.0193C33.3905 28.0193 28.019 33.3907 28.019 40.0002C28.019 46.6098 33.3905 51.9812 40 51.9812C46.6095 51.9812 51.981 46.6098 51.981 40.0002C51.981 33.3907 46.6095 28.0193 40 28.0193ZM40 47.486C35.8667 47.486 32.5143 44.1336 32.5143 40.0002C32.5143 35.8669 35.8667 32.5145 40 32.5145C44.1333 32.5145 47.4857 35.8669 47.4857 40.0002C47.4857 44.1336 44.1333 47.486 40 47.486Z" fill="white"/>
<path d="M52.8764 28.7237C53.76 28.7237 54.4764 28.0073 54.4764 27.1237C54.4764 26.24 53.76 25.5237 52.8764 25.5237C51.9927 25.5237 51.2764 26.24 51.2764 27.1237C51.2764 28.0073 51.9927 28.7237 52.8764 28.7237Z" fill="white"/>
</svg>
