<svg width="130" height="130" viewBox="0 0 130 130" fill="none" xmlns="http://www.w3.org/2000/svg">
<path d="M65.0002 18.5908C45.1362 18.5908 28.9902 34.7368 28.9902 54.6008C28.9902 74.4648 45.1362 90.6108 65.0002 90.6108C84.8642 90.6108 101.01 74.4648 101.01 54.6008C101.01 34.7368 84.8642 18.5908 65.0002 18.5908ZM65.0002 86.1908C47.5802 86.1908 33.4102 72.0208 33.4102 54.6008C33.4102 37.1808 47.5802 23.0108 65.0002 23.0108C82.4202 23.0108 96.5902 37.1808 96.5902 54.6008C96.5902 72.0208 82.4202 86.1908 65.0002 86.1908Z" fill="#424242"/>
<path d="M90.0122 46.4611C89.7262 45.5511 88.8682 44.9271 87.9062 44.9271H72.0202L67.1062 29.8211C66.8202 28.9111 65.9622 28.2871 65.0002 28.2871C64.0382 28.2871 63.2062 28.9111 62.8942 29.8211L57.9802 44.9531H42.0942C41.1322 44.9531 40.3002 45.5771 39.9882 46.4871C39.7022 47.3971 40.0142 48.3851 40.7942 48.9571L53.6642 58.2911L48.7502 73.3971C48.4642 74.3071 48.7762 75.2951 49.5562 75.8671C50.3362 76.4391 51.3762 76.4391 52.1562 75.8671L65.0262 66.5331L77.8962 75.8671C78.2862 76.1531 78.7282 76.2831 79.1962 76.2831C79.6642 76.2831 80.1062 76.1531 80.4962 75.8671C81.2762 75.2951 81.5882 74.3071 81.3022 73.3971L76.3882 58.2911L89.2582 48.9571C89.9862 48.3851 90.2982 47.3711 90.0122 46.4611ZM72.4622 55.6651C71.6822 56.2371 71.3702 57.2251 71.6562 58.1351L74.9582 68.3011L66.3002 62.0091C65.9102 61.7231 65.4682 61.5931 65.0002 61.5931C64.5322 61.5931 64.0902 61.7231 63.7002 62.0091L55.0422 68.3011L58.3442 58.1351C58.6302 57.2251 58.3182 56.2371 57.5382 55.6651L48.8802 49.3731H59.5922C60.5542 49.3731 61.3862 48.7491 61.6982 47.8391L65.0002 37.6731L68.3022 47.8391C68.5882 48.7491 69.4462 49.3731 70.4082 49.3731H81.1202L72.4622 55.6651Z" fill="#424242"/>
<path d="M121.16 95.9659L104.364 79.1699C108.836 72.0459 111.41 63.6219 111.41 54.5999C111.41 29.0159 90.5842 8.18994 65.0002 8.18994C39.4162 8.18994 18.5902 29.0159 18.5902 54.5999C18.5902 63.6219 21.1902 72.0459 25.6362 79.1699L8.84019 95.9659C8.24219 96.5639 8.03419 97.4739 8.32019 98.2799C8.60619 99.0859 9.33419 99.6579 10.1922 99.7359L28.6002 101.4L30.2642 119.782C30.3422 120.64 30.9142 121.368 31.7202 121.654C31.9542 121.732 32.2142 121.784 32.4742 121.784C33.0462 121.784 33.6182 121.55 34.0342 121.134L55.2242 99.9439C58.3702 100.62 61.6462 100.984 65.0002 100.984C68.3542 100.984 71.6302 100.62 74.7762 99.9439L95.9662 121.134C96.3822 121.55 96.9542 121.784 97.5262 121.784C97.7862 121.784 98.0202 121.732 98.2802 121.654C99.0862 121.368 99.6582 120.64 99.7362 119.782L101.4 101.4L119.782 99.7359C120.64 99.6579 121.368 99.0859 121.654 98.2799C121.966 97.4739 121.758 96.5899 121.16 95.9659ZM34.2422 114.712L32.8382 99.1899C32.7342 98.1239 31.9022 97.2919 30.8362 97.1879L15.3142 95.7839L28.2362 82.8619C33.8262 90.1159 41.4962 95.6799 50.3362 98.6439L34.2422 114.712ZM23.0102 54.5999C23.0102 31.4339 41.8342 12.6099 65.0002 12.6099C88.1662 12.6099 106.99 31.4339 106.99 54.5999C106.99 77.7659 88.1662 96.5899 65.0002 96.5899C41.8342 96.5899 23.0102 77.7659 23.0102 54.5999ZM99.1642 97.1879C98.0982 97.2919 97.2662 98.1239 97.1622 99.1899L95.7582 114.712L79.6902 98.6439C88.5302 95.6799 96.2002 90.1159 101.79 82.8619L114.712 95.7839L99.1642 97.1879Z" fill="#424242"/>
</svg>
