<svg width="130" height="130" viewBox="0 0 130 130" fill="none" xmlns="http://www.w3.org/2000/svg">
<path d="M111.358 55.016C111.384 54.886 111.41 54.73 111.41 54.6C111.41 29.0159 90.584 8.18994 65 8.18994C39.416 8.18994 18.5899 29.0159 18.5899 54.6C18.5899 54.756 18.6159 54.886 18.6419 55.016C12.8179 55.432 8.18994 60.32 8.18994 66.248V84.526C8.18994 90.74 13.2339 95.81 19.4739 95.81H26C27.222 95.81 28.21 94.822 28.21 93.6V57.2C28.21 55.978 27.222 54.99 26 54.99H22.984C23.01 54.86 23.01 54.73 23.01 54.6C23.01 31.4339 41.834 12.6099 65 12.6099C88.166 12.6099 106.99 31.4339 106.99 54.6C106.99 54.73 107.016 54.86 107.016 54.99H104C102.778 54.99 101.79 55.978 101.79 57.2V93.6C101.79 94.822 102.778 95.81 104 95.81H110.526C116.74 95.81 121.81 90.766 121.81 84.526V66.248C121.81 60.32 117.208 55.458 111.358 55.016ZM23.79 91.39H19.4739C15.7039 91.39 12.6099 88.322 12.6099 84.526V66.248C12.6099 62.478 15.6779 59.384 19.4739 59.384H23.79V91.39ZM117.39 84.526C117.39 88.296 114.322 91.39 110.526 91.39H106.21V59.41H110.526C114.296 59.41 117.39 62.478 117.39 66.274V84.526Z" fill="#424242"/>
<path d="M52.0003 75.7896H46.8003C45.5783 75.7896 44.5903 76.7776 44.5903 77.9996C44.5903 79.2216 45.5783 80.2095 46.8003 80.2095H52.0003C53.2223 80.2095 54.2103 79.2216 54.2103 77.9996C54.2103 76.7776 53.2223 75.7896 52.0003 75.7896Z" fill="#424242"/>
<path d="M67.5999 75.7896H62.3999C61.1779 75.7896 60.1899 76.7776 60.1899 77.9996C60.1899 79.2216 61.1779 80.2095 62.3999 80.2095H67.5999C68.8219 80.2095 69.8099 79.2216 69.8099 77.9996C69.8099 76.7776 68.8219 75.7896 67.5999 75.7896Z" fill="#424242"/>
<path d="M83.2 75.7896H78C76.778 75.7896 75.79 76.7776 75.79 77.9996C75.79 79.2216 76.778 80.2095 78 80.2095H83.2C84.422 80.2095 85.41 79.2216 85.41 77.9996C85.41 76.7776 84.422 75.7896 83.2 75.7896Z" fill="#424242"/>
<path d="M65.0003 45.5C46.9304 45.5 32.2144 60.216 32.2144 78.286V114.426C32.2144 115.31 32.7604 116.116 33.5664 116.48C33.8524 116.584 34.1384 116.636 34.4244 116.636C34.9964 116.636 35.5684 116.402 35.9844 115.986L46.5664 105.404C52.0004 109.122 58.3443 111.072 65.0003 111.072C83.0703 111.072 97.7863 96.356 97.7863 78.286C97.7863 60.216 83.0703 45.5 65.0003 45.5ZM65.0003 106.626C58.6823 106.626 52.7023 104.598 47.6843 100.724C46.8003 100.048 45.5524 100.126 44.7724 100.906L36.6344 109.044V78.26C36.6344 62.634 49.3484 49.894 65.0003 49.894C80.6523 49.894 93.3663 62.634 93.3663 78.26C93.3663 93.886 80.6263 106.626 65.0003 106.626Z" fill="#424242"/>
</svg>
