<svg width="80" height="80" viewBox="0 0 80 80" fill="none" xmlns="http://www.w3.org/2000/svg">
<path d="M40 80C62.0914 80 80 62.0914 80 40C80 17.9086 62.0914 0 40 0C17.9086 0 0 17.9086 0 40C0 62.0914 17.9086 80 40 80Z" fill="#1A9FFF"/>
<path d="M18.3046 39.1235L56.876 24.2473C58.6665 23.5997 60.2284 24.6854 59.657 27.3901L53.0856 58.3235C52.5903 60.514 51.2951 61.0473 49.4665 60.0187L39.4665 52.6473L34.6475 57.2949C34.1141 57.8282 33.657 58.2854 32.6284 58.2854L33.3332 48.114L51.8665 31.3711C52.6665 30.6663 51.6951 30.2663 50.6284 30.9711L27.7332 45.3901L17.8665 42.3044C15.7141 41.6378 15.657 40.1711 18.3046 39.1235Z" fill="white"/>
</svg>
