<svg width="80" height="80" viewBox="0 0 80 80" fill="none" xmlns="http://www.w3.org/2000/svg">
<path d="M40 80C62.0914 80 80 62.0914 80 40C80 17.9086 62.0914 0 40 0C17.9086 0 0 17.9086 0 40C0 62.0914 17.9086 80 40 80Z" fill="#17CA1E"/>
<path d="M57.7903 22.4192C53.276 17.9049 47.257 15.4097 40.857 15.4097C27.657 15.4097 16.9141 26.1525 16.9141 39.3335C16.9141 43.543 18.0189 47.6763 20.1141 51.2954L16.7236 63.6954L29.4093 60.362C32.9141 62.2668 36.8379 63.2763 40.857 63.2763H40.876C54.076 63.2763 64.8189 52.5335 64.8189 39.3525C64.7998 32.9525 62.3046 26.9525 57.7903 22.4192ZM40.8379 59.2382C37.257 59.2382 33.7522 58.2859 30.7046 56.4573L29.9808 56.0192L22.457 58.0001L24.476 50.6668L23.9998 49.9049C21.9998 46.743 20.9522 43.0859 20.9522 39.3144C20.9522 28.343 29.8855 19.4287 40.857 19.4287C46.1713 19.4287 51.1617 21.5049 54.9332 25.2573C58.6855 29.0097 60.7617 34.0192 60.7617 39.3335C60.7427 50.324 51.8093 59.2382 40.8379 59.2382Z" fill="white"/>
<path d="M52.5522 47.8856C52.057 49.2761 49.657 50.5523 48.5141 50.7237C47.4855 50.8761 46.1713 50.9333 44.7427 50.4952C43.8665 50.2285 42.7617 49.8475 41.3332 49.238C35.3332 46.6475 31.4094 40.6095 31.1236 40.2095C30.8379 39.8095 28.6855 36.9714 28.6855 34.019C28.6855 31.0666 30.2284 29.638 30.7808 29.0285C31.3332 28.438 31.9808 28.2856 32.3808 28.2856C32.7808 28.2856 33.1808 28.2856 33.5236 28.3047C33.8855 28.3237 34.3808 28.1714 34.876 29.3333C35.3713 30.5333 36.5713 33.4666 36.7236 33.7714C36.876 34.0761 36.9713 34.419 36.7808 34.819C36.5903 35.219 35.9236 36.0761 35.276 36.8571C35.0094 37.1809 34.6665 37.4856 35.0094 38.0761C35.3522 38.6666 36.5522 40.6285 38.3427 42.2095C40.6284 44.2475 42.5522 44.8761 43.1617 45.1809C43.7522 45.4856 44.1141 45.4285 44.457 45.0285C44.7998 44.6285 45.9617 43.2761 46.3427 42.6856C46.7236 42.0952 47.1427 42.1904 47.6951 42.3809C48.2474 42.5714 51.1808 44.019 51.7903 44.3237C52.3808 44.6285 52.7808 44.7809 52.9332 45.0285C53.0665 45.2952 53.0665 46.4952 52.5522 47.8856Z" fill="white"/>
</svg>
